<?xml version="1.0" encoding="utf-8" ?>
<!DOCTYPE svg PUBLIC "-//W3C//DTD SVG 1.1//EN" "http://www.w3.org/Graphics/SVG/1.1/DTD/svg11.dtd">
<svg xmlns="http://www.w3.org/2000/svg" xmlns:xlink="http://www.w3.org/1999/xlink" version="1.1" id="Capa_1" x="0px" y="0px" viewBox="0 0 463.001 463.001" style="enable-background:new 0 0 463.001 463.001;" xml:space="preserve" width="512px" height="512px"><g><path d="M455.5,352H447V242.847l4.34,2.893c1.279,0.853,2.724,1.261,4.153,1.261c2.423,0,4.802-1.173,6.247-3.341 c2.298-3.446,1.367-8.103-2.08-10.4l-96-64c-2.52-1.68-5.801-1.68-8.32,0l-96,64c-3.447,2.297-4.378,6.954-2.08,10.4 c2.298,3.447,6.955,4.378,10.4,2.08l4.34-2.893V312h-17v-8.5c0-4.142-3.358-7.5-7.5-7.5s-7.5,3.358-7.5,7.5v8.5h-17v-8.5 c0-4.142-3.358-7.5-7.5-7.5s-7.5,3.358-7.5,7.5v8.5h-17v-17.909c13.759-3.374,24-15.806,24-30.591 c0-7.308-2.75-23.948-7.351-39.144C200.964,202.282,193.291,192,183.5,192s-17.464,10.281-24.149,32.356 C154.75,239.553,152,256.193,152,263.5c0,14.785,10.241,27.216,24,30.591V312h-17v-8.5c0-4.142-3.358-7.5-7.5-7.5 s-7.5,3.358-7.5,7.5v8.5h-17v-8.5c0-4.142-3.358-7.5-7.5-7.5s-7.5,3.358-7.5,7.5v8.5H95V286.48c27.067-3.675,48-26.921,48-54.979 c0-14.07-5.379-46.387-14.381-76.115C116.519,115.426,103.069,96,87.5,96s-29.019,19.425-41.119,59.385 C37.379,185.113,32,217.431,32,231.5c0,28.058,20.933,51.305,48,54.979V312H63v-8.5c0-4.142-3.358-7.5-7.5-7.5s-7.5,3.358-7.5,7.5 v8.5H31v-8.5c0-4.142-3.358-7.5-7.5-7.5s-7.5,3.358-7.5,7.5v8.5H7.5c-4.142,0-7.5,3.358-7.5,7.5s3.358,7.5,7.5,7.5H16v25H7.5 c-4.142,0-7.5,3.358-7.5,7.5s3.358,7.5,7.5,7.5h448c4.142,0,7.5-3.358,7.5-7.5S459.642,352,455.5,352z M167,263.5 c0-5.401,2.252-19.175,5.891-32.009c4.472-15.773,8.669-22.206,10.609-24.072c1.94,1.866,6.138,8.299,10.609,24.072 C197.748,244.326,200,258.1,200,263.5c0,6.396-3.666,11.942-9,14.678V271.5c0-4.142-3.358-7.5-7.5-7.5s-7.5,3.358-7.5,7.5v6.678 C170.666,275.442,167,269.897,167,263.5z M47,231.5c0-12.697,5.252-43.746,13.737-71.768c4.578-15.119,9.617-27.639,14.572-36.206 C80.65,114.291,85.109,111,87.5,111s6.85,3.291,12.191,12.527c4.955,8.566,9.994,21.086,14.572,36.206 C122.748,187.754,128,218.803,128,231.5c0,19.769-14.241,36.264-33,39.792v-36.686l13.803-13.803c2.929-2.929,2.929-7.678,0-10.606 c-2.929-2.929-7.678-2.929-10.606,0L95,213.394V199.5c0-4.142-3.358-7.5-7.5-7.5s-7.5,3.358-7.5,7.5v31.998 c0,0.001,0,0.003,0,0.005v5.891l-3.197-3.197c-2.929-2.929-7.678-2.929-10.606,0c-2.929,2.929-2.929,7.678,0,10.606L80,258.607 v12.686C61.241,267.764,47,251.269,47,231.5z M272,327v25h-17v-25H272z M240,327v25h-17v-25H240z M208,327v25h-17v-25H208z M176,327v25h-17v-25H176z M144,327v25h-17v-25H144z M112,327v25H95v-25H112z M80,327v25H63v-25H80z M31,327h17v25H31V327z M287,352V232.847l72.5-48.333l72.5,48.333V352H287z" fill="#e8602e"/><path d="M343.5,256h-32c-4.142,0-7.5,3.358-7.5,7.5v64c0,4.142,3.358,7.5,7.5,7.5h32c4.142,0,7.5-3.358,7.5-7.5v-64 C351,259.358,347.642,256,343.5,256z M336,271v9h-17v-9H336z M319,320v-25h17v25H319z" fill="#e8602e"/><path d="M407.5,256h-32c-4.142,0-7.5,3.358-7.5,7.5v64c0,4.142,3.358,7.5,7.5,7.5h32c4.142,0,7.5-3.358,7.5-7.5v-64 C415,259.358,411.642,256,407.5,256z M400,271v9h-17v-9H400z M383,320v-25h17v25H383z" fill="#e8602e"/></g><g></g><g></g><g></g><g></g><g></g><g></g><g></g><g></g><g></g><g></g><g></g><g></g><g></g><g></g><g></g></svg>